<svg width="250" height="44" viewBox="0 0 250 44" fill="none" xmlns="http://www.w3.org/2000/svg">
<g clip-path="url(#clip0_2294_28505)">
<path d="M0.645996 24.0781H6.33373C10.6721 24.0781 13.9252 27.3107 13.9252 31.9365C13.9252 36.5624 10.6721 39.7949 6.33373 39.7949H0.645996V24.0811V24.0781ZM6.22226 36.9379C9.21133 36.9379 10.7601 34.9021 10.7601 31.9365C10.7601 28.9709 9.21133 26.9352 6.22226 26.9352H3.67613V36.9408H6.22226V36.9379ZM26.518 39.792H23.5524V38.2197C22.91 39.2376 21.7601 40.012 20.0324 40.012C17.6652 40.012 15.6735 38.5512 15.6735 35.0547V28.2816H18.6391V34.5677C18.6391 36.2485 19.5455 37.3573 21.0972 37.3573C22.6489 37.3573 23.5553 36.2515 23.5553 34.5677V28.2816H26.5209V39.792H26.518ZM31.5545 24.0781V29.8333H31.622C31.9095 29.1909 33.2383 28.0616 35.2975 28.0616C37.9756 28.0616 40.8297 30.0533 40.8297 34.0368C40.8297 38.0203 37.9756 40.012 35.2975 40.012C33.2383 40.012 31.9124 38.8827 31.622 38.2403H31.5545V39.7891H28.5889V24.0752H31.5545V24.0781ZM34.6961 37.3573C36.3564 37.3573 37.9052 36.184 37.9052 34.0368C37.9052 31.8896 36.3564 30.7163 34.6961 30.7163C33.0359 30.7163 31.4871 31.8661 31.4871 34.0368C31.4871 36.2075 33.0359 37.3573 34.6961 37.3573ZM41.7684 34.0368C41.7684 30.0533 44.6225 28.0616 47.3007 28.0616C49.3599 28.0616 50.6857 29.1909 50.9761 29.8333H51.0436V28.2845H54.0092V39.7949H51.0436V38.2461H50.9761C50.6887 38.8885 49.3599 40.0179 47.3007 40.0179C44.6225 40.0179 41.7684 38.0261 41.7684 34.0427V34.0368ZM47.8991 37.3573C49.5593 37.3573 51.1081 36.2075 51.1081 34.0368C51.1081 31.8661 49.5593 30.7163 47.8991 30.7163C46.2388 30.7163 44.69 31.8896 44.69 34.0368C44.69 36.184 46.2388 37.3573 47.8991 37.3573ZM57.7463 23.2803C58.6087 23.2803 59.3625 24.0341 59.3625 24.9405C59.3625 25.8469 58.6087 26.5773 57.7463 26.5773C56.8839 26.5773 56.13 25.8235 56.13 24.9405C56.13 24.0576 56.8604 23.2803 57.7463 23.2803ZM56.262 28.2816H59.2276V39.792H56.262V28.2816ZM66.0887 24.0752H69.4297L74.566 35.9171L79.7023 24.0752H83.0433V39.7891H80.0103V29.9184H79.8988L75.6719 39.7891H73.4367L69.2303 29.9184H69.1188V39.7891H66.0857V24.0752H66.0887ZM96.2081 39.7891H93.2425V38.2168C92.6001 39.2347 91.4503 40.0091 89.7225 40.0091C87.3553 40.0091 85.3636 38.5483 85.3636 35.0517V28.2787H88.3292V34.5648C88.3292 36.2456 89.2356 37.3544 90.7873 37.3544C92.3391 37.3544 93.2455 36.2485 93.2455 34.5648V28.2787H96.2111V39.7891H96.2081ZM98.2791 28.2787H101.245V29.8509C101.887 28.8331 103.037 28.0587 104.765 28.0587C107.132 28.0587 109.124 29.5195 109.124 33.016V39.7891H106.158V33.5029C106.158 31.8221 105.252 30.7133 103.7 30.7133C102.148 30.7133 101.242 31.8192 101.242 33.5029V39.7891H98.2761V28.2787H98.2791ZM112.761 23.2773C113.623 23.2773 114.377 24.0312 114.377 24.9376C114.377 25.844 113.623 26.5744 112.761 26.5744C111.899 26.5744 111.145 25.8205 111.145 24.9376C111.145 24.0547 111.875 23.2773 112.761 23.2773ZM111.277 28.2787H114.242V39.7891H111.277V28.2787ZM115.832 34.0339C115.832 30.1384 118.865 28.0587 121.895 28.0587C123.931 28.0587 125.747 29.0091 126.853 30.8923L124.685 32.2856C124.087 31.3792 123.113 30.7368 121.919 30.7368C120.259 30.7368 118.754 31.9776 118.754 34.0339C118.754 36.0901 120.259 37.3309 121.919 37.3309C123.113 37.3309 124.087 36.6885 124.685 35.7821L126.853 37.1755C125.747 39.0352 123.931 40.0091 121.895 40.0091C118.862 40.0091 115.832 37.9293 115.832 34.0339ZM129.748 23.2773C130.61 23.2773 131.364 24.0312 131.364 24.9376C131.364 25.844 130.61 26.5744 129.748 26.5744C128.885 26.5744 128.132 25.8205 128.132 24.9376C128.132 24.0547 128.862 23.2773 129.748 23.2773ZM128.264 28.2787H131.229V39.7891H128.264V28.2787ZM133.447 28.2787H136.412V29.8275H136.48C136.767 29.1851 138.096 28.0557 140.155 28.0557C142.833 28.0557 145.688 30.0475 145.688 34.0309C145.688 38.0144 142.833 40.0061 140.155 40.0061C138.096 40.0061 136.77 38.8768 136.48 38.2344H136.412V43.9896H133.447V28.2757V28.2787ZM139.557 37.3544C141.217 37.3544 142.766 36.1811 142.766 34.0339C142.766 31.8867 141.217 30.7133 139.557 30.7133C137.897 30.7133 136.348 31.8632 136.348 34.0339C136.348 36.2045 137.897 37.3544 139.557 37.3544ZM146.629 34.0339C146.629 30.0504 149.483 28.0587 152.161 28.0587C154.221 28.0587 155.547 29.188 155.837 29.8304H155.904V28.2816H158.87V39.792H155.904V38.2432H155.837C155.549 38.8856 154.221 40.0149 152.161 40.0149C149.483 40.0149 146.629 38.0232 146.629 34.0397V34.0339ZM152.76 37.3544C154.42 37.3544 155.969 36.2045 155.969 34.0339C155.969 31.8632 154.42 30.7133 152.76 30.7133C151.1 30.7133 149.551 31.8867 149.551 34.0339C149.551 36.1811 151.1 37.3544 152.76 37.3544ZM160.944 24.0752H163.909V39.7891H160.944V24.0752ZM167.6 23.2773C168.462 23.2773 169.216 24.0312 169.216 24.9376C169.216 25.844 168.462 26.5744 167.6 26.5744C166.737 26.5744 165.983 25.8205 165.983 24.9376C165.983 24.0547 166.714 23.2773 167.6 23.2773ZM166.115 28.2787H169.081V39.7891H166.115V28.2787ZM172.047 36.6005V30.6459H170.41V28.2787H172.047V25.3336H175.036V28.2787H177.403V30.6459H175.036V36.1136C175.036 36.712 175.367 37.2869 176.341 37.2869C176.608 37.2869 177.004 37.2429 177.426 37.1109V39.3901C176.983 39.7891 176.141 39.9211 175.411 39.9211C173.463 39.9211 172.047 38.9707 172.047 36.6005ZM182.935 39.6776L178.154 28.2787H181.187L184.375 36.2691L187.54 28.2787H190.594L185.748 39.7891L183.956 43.9955H181.058L182.938 39.6805L182.935 39.6776Z" fill="#313549"/>
<path d="M229.585 2.74657C229.684 2.64684 229.767 2.56471 229.834 2.50311C229.904 2.44151 229.963 2.40044 230.019 2.37697C230.098 2.34177 230.183 2.32124 230.268 2.32124C230.353 2.32124 230.438 2.33884 230.517 2.37697C230.576 2.40044 230.632 2.44151 230.702 2.50311C230.773 2.56471 230.852 2.64391 230.952 2.74657L249.572 21.1092C249.672 21.209 249.754 21.2911 249.813 21.3586C249.875 21.429 249.916 21.4876 249.939 21.5434C249.974 21.6226 249.995 21.7076 249.995 21.7927C249.995 21.8778 249.974 21.9628 249.939 22.042C249.916 22.0978 249.875 22.1564 249.813 22.2268C249.751 22.2972 249.672 22.3764 249.572 22.4762C249.572 22.4762 228.426 43.5932 228.359 43.6548C228.191 43.8191 227.927 43.9951 227.52 43.9951H196.221C196.065 43.9951 195.901 43.8426 195.84 43.7751C195.778 43.7047 195.737 43.646 195.713 43.5903C195.678 43.5111 195.658 43.426 195.658 43.341C195.658 43.2559 195.678 43.1708 195.713 43.0916C195.737 43.0359 195.778 42.9772 195.84 42.9068C195.901 42.8364 229.582 2.74364 229.582 2.74364L229.585 2.74657ZM213.34 0.00683958C213.264 0.0127062 213.205 0.0215062 213.158 0.0420396C213.091 0.0655062 213.032 0.10364 212.982 0.153506C212.932 0.203373 212.894 0.264973 212.871 0.329506C212.85 0.37644 212.841 0.435106 212.835 0.511373C212.829 0.58764 212.829 0.681506 212.829 0.795906L222.263 10.2236L229.438 1.66711L228.18 0.33244C227.971 0.124173 227.901 0.00977292 227.71 0.00977292C227.634 0.00977292 227.54 0.00390625 227.426 0.00390625H213.627C213.51 0.00390625 213.416 0.00390625 213.343 0.00977292L213.34 0.00683958Z" fill="#313549"/>
<path d="M11.3733 18.2307C11.3733 19.052 10.681 19.7208 9.86265 19.7208C8.99731 19.7208 8.35198 19.052 8.35198 18.2307C8.35198 17.4093 9.02078 16.7405 9.86265 16.7405C10.7045 16.7405 11.3733 17.3888 11.3733 18.2307ZM6.19011 16.7405C5.34825 16.7405 4.67945 17.3888 4.67945 18.2307C4.67945 19.0725 5.32771 19.7208 6.19011 19.7208C7.05251 19.7208 7.70078 19.052 7.70078 18.2307C7.70078 17.4093 7.00851 16.7405 6.19011 16.7405ZM45.6698 16.676C44.8045 16.676 44.1357 17.3243 44.1357 18.1867C44.1357 19.0491 44.8045 19.7208 45.6698 19.7208C46.5352 19.7208 47.2245 19.052 47.2245 18.1867C47.2245 17.3213 46.5322 16.676 45.6698 16.676ZM44.0917 12.5517H19.9709V9.57147C19.9709 6.61173 18.8269 4.77547 14.9168 4.77547C12.3882 4.77547 10.2733 5.18613 10.2733 5.18613V12.5517H9.08531C5.32771 12.5517 3.98718 11.2787 3.98718 8.404C3.98718 7.28053 4.24531 5.89893 4.69998 4.928L1.02745 5.51173C0.745846 6.41813 0.552246 7.69413 0.552246 8.75013C0.552246 12.6163 2.56158 15.2299 8.71571 15.2299H13.5528V7.56213C13.5528 7.56213 14.1365 7.4536 14.7202 7.4536C16.2544 7.4536 16.6856 8.08133 16.6856 9.91467V15.2269H47.5032V5.07467H44.0917V12.5488V12.5517ZM51.824 4.49387L51.0261 7.32453C54.1589 8.0168 55.7136 9.85307 55.8867 12.5517H49.8381V15.2299H59.2336V13.5667C59.2336 8.2544 56.5349 5.5968 51.824 4.49387ZM69.7173 3.696C70.5592 3.696 71.228 3.0272 71.228 2.20587C71.228 1.38453 70.5357 0.715733 69.7173 0.715733C68.8989 0.715733 68.2066 1.38453 68.2066 2.20587C68.2066 3.0272 68.8549 3.696 69.7173 3.696ZM73.3898 3.696C74.2112 3.696 74.9005 3.0272 74.9005 2.20587C74.9005 1.38453 74.2083 0.715733 73.3898 0.715733C72.5714 0.715733 71.8792 1.38453 71.8792 2.20587C71.8792 3.0272 72.5275 3.696 73.3898 3.696ZM112.764 16.7405C111.922 16.7405 111.253 17.3888 111.253 18.2307C111.253 19.0725 111.902 19.7208 112.764 19.7208C113.626 19.7208 114.275 19.052 114.275 18.2307C114.275 17.4093 113.582 16.7405 112.764 16.7405ZM109.091 16.7405C108.25 16.7405 107.581 17.3888 107.581 18.2307C107.581 19.0725 108.229 19.7208 109.091 19.7208C109.954 19.7208 110.602 19.052 110.602 18.2307C110.602 17.4093 109.91 16.7405 109.091 16.7405ZM112.699 15.2299H71.8352C67.6024 15.2299 65.9832 13.2851 65.9832 10.2403C65.9832 7.4096 67.7315 4.77547 71.8792 4.77547C74.5573 4.77547 76.5227 5.53227 76.5227 5.53227V12.5517H109.288V5.0776H112.699V15.2299ZM73.2168 7.7792C73.2168 7.7792 72.548 7.45653 71.5331 7.45653C70.172 7.45653 69.3947 8.55947 69.3947 9.94107C69.3947 11.6043 70.2365 12.5547 72.1813 12.5547H73.2168V7.78213V7.7792ZM186.801 5.08053V12.5547H132.937V0H129.525V12.5488H124.386C124.063 7.90533 121.406 5.52933 117.02 4.49093L116.222 7.3216C119.355 8.01387 120.91 9.85013 121.083 12.5488H115.034V15.2269H190.219V5.07467H186.807L186.801 5.08053ZM188.379 16.6789C187.514 16.6789 186.845 17.3272 186.845 18.1896C186.845 19.052 187.514 19.7237 188.379 19.7237C189.245 19.7237 189.934 19.0549 189.934 18.1896C189.934 17.3243 189.242 16.6789 188.379 16.6789Z" fill="#313549"/>
</g>
<defs>
<clipPath id="clip0_2294_28505">
<rect width="249.448" height="44" fill="white" transform="translate(0.552246)"/>
</clipPath>
</defs>
</svg>
